# xmcd
#
# Track frame offsets: 
#        150
#        18410
#        33192
#        47905
#        65612
#        90415
#        115085
#        141607
#        158412
#        177897
#        204412
#
# Disc length: 3066 seconds
#
# Revision: 10
# Processed by: cddbd v1.5.2PL0 Copyright (c) Steve Scherf et al.
# Submitted via: ExactAudioCopy v1.0b3
#
DISCID=8c0bf80b
DTITLE=Williams, Lucinda - Essence
DYEAR=2001
DGENRE=Country
TTITLE0=Lonely Girls
TTITLE1=Steal Your Love
TTITLE2=I Envy The Wind
TTITLE3=Blue
TTITLE4=Out Of Touch
TTITLE5=Are You Down
TTITLE6=Essence
TTITLE7=Reason To Cry
TTITLE8=Get Right With God
TTITLE9=Bus To Baton Rouge
TTITLE10=Broken Butterflies
EXTD=YEAR: 2001 ID3G: 2
EXTT0=
EXTT1=
EXTT2=
EXTT3=
EXTT4=
EXTT5=
EXTT6=
EXTT7=
EXTT8=
EXTT9=
EXTT10=
PLAYORDER=
